<svg version="1.1" xmlns="http://www.w3.org/2000/svg" xmlns:xlink="http://www.w3.org/1999/xlink" width="44" height="44" viewBox="0,0,256,256"><g fill="none" fill-rule="nonzero" stroke="none" stroke-width="none" stroke-linecap="none" stroke-linejoin="miter" stroke-miterlimit="10" stroke-dasharray="" stroke-dashoffset="0" font-family="none" font-weight="none" font-size="none" text-anchor="none" style="mix-blend-mode: normal"><g transform="scale(5.81818,5.81818)"><rect x="0" y="0" width="44" height="44" rx="6" ry="0" fill="#dadada" stroke="none" stroke-width="1" stroke-linecap="butt"></rect><path d="M12,13l0.265,0.088c1.32,0.44 1.98,0.66 2.357,1.184c0.377,0.524 0.378,1.22 0.378,2.611v2.617c0,2.828 0,4.243 0.879,5.121c0.878,0.879 2.293,0.879 5.121,0.879h8" fill="none" stroke="#fa5252" stroke-width="1.5" stroke-linecap="round"></path><path d="M15,16h11.45c2.055,0 3.083,0 3.528,0.674c0.444,0.675 0.04,1.619 -0.77,3.508l-0.429,1c-0.378,0.882 -0.567,1.322 -0.942,1.57c-0.376,0.248 -0.856,0.248 -1.815,0.248h-11.022M17.5,28c0.3978,0 0.7794,0.158 1.0607,0.4393c0.2813,0.2813 0.4393,0.6629 0.4393,1.0607c0,0.3978 -0.158,0.7794 -0.4393,1.0607c-0.2813,0.2813 -0.6629,0.4393 -1.0607,0.4393c-0.3978,0 -0.7794,-0.158 -1.0607,-0.4393c-0.2813,-0.2813 -0.4393,-0.6629 -0.4393,-1.0607c0,-0.3978 0.158,-0.7794 0.4393,-1.0607c0.2813,-0.2813 0.6629,-0.4393 1.0607,-0.4393zM26.5,28c0.3978,0 0.7794,0.158 1.0607,0.4393c0.2813,0.2813 0.4393,0.6629 0.4393,1.0607c0,0.3978 -0.158,0.7794 -0.4393,1.0607c-0.2813,0.2813 -0.6629,0.4393 -1.0607,0.4393c-0.3978,0 -0.7794,-0.158 -1.0607,-0.4393c-0.2813,-0.2813 -0.4393,-0.6629 -0.4393,-1.0607c0,-0.3978 0.158,-0.7794 0.4393,-1.0607c0.2813,-0.2813 0.6629,-0.4393 1.0607,-0.4393z" fill="none" stroke="#fa5252" stroke-width="1.5" stroke-linecap="butt"></path></g></g></svg>